<?xml version="1.0" encoding="UTF-8" standalone="no"?>
<svg
   xmlns:dc="http://purl.org/dc/elements/1.1/"
   xmlns:cc="http://creativecommons.org/ns#"
   xmlns:rdf="http://www.w3.org/1999/02/22-rdf-syntax-ns#"
   xmlns:svg="http://www.w3.org/2000/svg"
   xmlns="http://www.w3.org/2000/svg"
   xmlns:sodipodi="http://sodipodi.sourceforge.net/DTD/sodipodi-0.dtd"
   xmlns:inkscape="http://www.inkscape.org/namespaces/inkscape"
   sodipodi:docname="icon.svg"
   inkscape:version="1.0 (4035a4fb49, 2020-05-01)"
   id="svg8"
   version="1.1"
   viewBox="0 0 500 499.99994"
   height="499.99991mm"
   width="500mm">
  <defs
     id="defs2" />
  <sodipodi:namedview
     inkscape:window-maximized="1"
     inkscape:window-y="-8"
     inkscape:window-x="-8"
     inkscape:window-height="1017"
     inkscape:window-width="1920"
     showgrid="false"
     inkscape:document-rotation="0"
     inkscape:current-layer="layer1"
     inkscape:document-units="mm"
     inkscape:cy="914.91712"
     inkscape:cx="1645.8475"
     inkscape:zoom="0.125"
     inkscape:pageshadow="2"
     inkscape:pageopacity="0.0"
     borderopacity="1.0"
     bordercolor="#666666"
     pagecolor="#ffffff"
     id="base" />
  <metadata
     id="metadata5">
    <rdf:RDF>
      <cc:Work
         rdf:about="">
        <dc:format>image/svg+xml</dc:format>
        <dc:type
           rdf:resource="http://purl.org/dc/dcmitype/StillImage" />
        <dc:title></dc:title>
      </cc:Work>
    </rdf:RDF>
  </metadata>
  <g
     inkscape:label="Capa 2"
     id="layer2"
     inkscape:groupmode="layer">
    <rect
       inkscape:export-ydpi="25.4"
       inkscape:export-xdpi="25.4"
       y="43.848904"
       x="35.079117"
       height="412.17975"
       width="434.10419"
       id="rect1008"
       style="fill:#fffffc;fill-opacity:1;fill-rule:nonzero;stroke:none;stroke-width:1.95311;stroke-miterlimit:4;stroke-dasharray:none;stroke-opacity:1;paint-order:stroke fill markers" />
  </g>
  <g
     transform="translate(-31.376651,-43.922904)"
     id="layer1"
     inkscape:groupmode="layer"
     inkscape:label="Capa 1">
    <path
       inkscape:export-ydpi="25.4"
       inkscape:export-xdpi="25.4"
       sodipodi:nodetypes="cccccccccssssssssssssssssccssscccssccccccssssscss"
       style="fill:#1a1b26;fill-opacity:1;fill-rule:nonzero;stroke-width:0.892853"
       d="M 31.376651,293.92287 V 43.922904 H 281.37662 531.37665 V 293.92287 543.92281 H 281.37662 31.376651 Z M 307.21831,436.78 c 2.04218,-39.58556 4.96356,-67.80413 8.05512,-77.80985 1.81031,-5.85884 6.7301,-14.82053 10.13931,-18.46937 3.55763,-3.80759 12.31644,-9.03719 18.33007,-10.94422 11.73206,-3.72047 31.07843,-2.15594 51.14675,4.13609 15.54268,4.87316 20.59156,4.06729 35.91325,-5.73203 7.08687,-4.53265 9.82353,-5.77356 14.05018,-6.371 2.88688,-0.40781 6.36182,-1.53437 7.722,-2.50281 1.52969,-1.08937 4.6145,-5.96787 8.08885,-12.79281 8.19253,-16.09328 9.26022,-22.80838 7.26603,-45.69969 -1.07406,-12.3305 -1.78656,-15.18837 -4.80481,-19.27969 -3.62794,-4.91737 -7.31944,-6.93675 -26.32153,-14.3995 -33.68591,-13.22943 -43.70616,-17.88818 -49.25266,-22.89912 -4.87913,-4.40803 -7.61006,-9.41956 -8.90569,-16.34319 -0.59719,-3.192 -2.01906,-7.81756 -3.15969,-10.27906 -6.13175,-13.234 -22.936,-21.0655 -38.93812,-18.14675 -3.5805,0.65281 -10.72875,1.18875 -15.885,1.19062 -8.94009,0.002 -10.22406,-0.25312 -27.67863,-5.54612 -23.63275,-7.16497 -24.53881,-7.34972 -36.16068,-7.37413 -29.37725,-0.0594 -63.04285,13.56769 -88.55594,35.85138 -3.03625,2.65187 -20.83278,21.07787 -39.54806,40.94675 l -34.027815,36.12525 29.403185,0.44656 29.40325,0.44656 -17.72925,18.75 c -9.75112,10.3125 -17.74175,19.04613 -17.757,19.40807 -0.0146,0.36218 13.77381,0.76375 30.64225,0.89281 l 30.66981,0.23437 -17.69571,18.75 -17.69572,18.75 25.028,0.2375 25.028,0.2375 -0.61719,1.94532 c -0.33969,1.07 -3.77988,10.18593 -7.64503,20.2575 -3.86513,10.07162 -7.02753,18.78343 -7.02753,19.35965 0,2.62625 25.66568,25.24085 41.0749,36.19219 18.69732,13.28825 44.3595,26.78869 65.52913,34.47378 5.6799,2.06219 20.43512,6.44025 20.75394,6.15825 0.0687,-0.0594 0.59218,-9.15147 1.16218,-20.20059 z"
       id="path891" />
    <path
       style="fill:#e6e6e6;fill-opacity:1;stroke-width:0.264583"
       d="m 60.310774,-79.44116 -0.911799,-0.99219 0.992187,0.9118 c 0.923507,0.84868 1.113841,1.07258 0.911799,1.07258 -0.04421,0 -0.490698,-0.44649 -0.992187,-0.99219 z m 512.720956,-32.01231 c 0.91519,-0.0518 2.34394,-0.0514 3.175,10e-4 0.83103,0.0523 0.0822,0.0947 -1.66402,0.0942 -1.74625,-5.3e-4 -2.4262,-0.0433 -1.51098,-0.0952 z m -6.98791,-14.09133 c 0,-1.67349 0.0429,-2.3581 0.0955,-1.52136 0.0525,0.83675 0.0525,2.20597 0,3.04271 -0.0525,0.83675 -0.0955,0.15214 -0.0955,-1.52135 z m -3.16791,-9.85573 -0.50403,-0.59531 0.59531,0.50403 c 0.55943,0.47366 0.71575,0.68659 0.50403,0.68659 -0.0502,0 -0.31811,-0.26789 -0.59531,-0.59531 z m -101.74092,-0.66146 c -0.32909,-0.41964 -0.31975,-0.429 0.0999,-0.0999 0.44072,0.34564 0.58089,0.56291 0.36311,0.56291 -0.0549,0 -0.26328,-0.20836 -0.46302,-0.46302 z"
       id="path923" />
    <path
       sodipodi:nodetypes="sssss"
       style="fill:#606060;fill-opacity:1;stroke-width:0.264583"
       d="m 107.63582,-146.09856 c 0.191,-0.0764 0.4192,-0.067 0.50712,0.0209 0.0879,0.0879 -0.0684,0.15045 -0.34726,0.13896 -0.30823,-0.0127 -0.37092,-0.0754 -0.15986,-0.15985 z"
       id="path899" />
    <g
       inkscape:export-ydpi="25.4"
       inkscape:export-xdpi="25.4"
       transform="matrix(1.8363909,0,0,1.8363909,229.2234,49.776873)"
       id="g990">
      <path
         sodipodi:nodetypes="sssssssssssssss"
         id="path992"
         d="m 122.85059,252.113 c -10.28062,-0.81342 -19.56353,-8.13189 -23.00595,-18.13745 -2.170915,-6.30988 -1.591021,-14.39079 1.468,-20.4568 1.85158,-3.67167 6.3264,-8.7432 9.03838,-10.24364 0.95011,-0.52566 1.11676,-0.54645 1.61018,-0.20084 0.50042,0.3505 0.5376,0.57206 0.40955,2.44028 -0.37311,5.44359 1.76014,12.37432 5.27327,17.13232 2.57617,3.48905 6.87946,7.29442 10.51309,8.90138 0.84083,0.37185 2.38558,1.08546 3.64267,1.47349 2.12685,0.65651 2.9958,0.99397 7.55058,0.99397 4.66522,0 4.87017,-0.39431 7.13973,-1.12038 1.30969,-0.41898 2.86813,-0.95768 3.37745,-0.96845 0.80905,-0.0171 0.93623,0.0683 1.00667,0.67594 0.11975,1.03306 -1.54681,4.92042 -3.18279,7.42407 -5.53539,8.47116 -14.62634,12.89429 -24.84083,12.08611 z"
         style="fill:#fffffc;fill-opacity:1;stroke-width:0.264583" />
    </g>
  </g>
</svg>
